# xmcd CD database file
#
# Track frame offsets:
#	150
#	26132
#	43150
#	63365
#	84335
#	116917
#	144245
#	164982
#	184677
#	201807
#	222785
#	243527
#	261785
#	289662
#	310722
#
# Disc length: 4397 seconds
#
# Revision: 2
# Processed by: cddbd v1.5.1PL0 Copyright (c) Steve Scherf et al.
# Submitted via: CDex 1.51
#
DISCID=e0112b0f
DTITLE=Air Supply - Now And Forever-Greatest Hits Live
DYEAR=1995
DGENRE=Easy Listening
TTITLE0=Making Love Out Of Nothing At All
TTITLE1=Chances
TTITLE2=Lost In Love
TTITLE3=Here I Am
TTITLE4=Sweet Dreams
TTITLE5=Someone
TTITLE6=I Want To Give It All
TTITLE7=Always
TTITLE8=Unchained Melody
TTITLE9=Without You
TTITLE10=The One That You Love
TTITLE11=Goodbye
TTITLE12=All Out Of Love
TTITLE13=The Way I Feel
TTITLE14=Now And Forever
EXTD=YEAR: 1995
EXTT0=
EXTT1=
EXTT2=
EXTT3=
EXTT4=
EXTT5=
EXTT6=
EXTT7=
EXTT8=
EXTT9=
EXTT10=
EXTT11=
EXTT12=
EXTT13=
EXTT14=
PLAYORDER=
